@startuml class

' クラス定義

class クライアント
{
クライアント
}

class レシーバー
{
クライアント受信クラス
}

class センダー
{
クライアント送信クラス
}

class 翻訳機
{
メッセージ変換、処理関数呼び出しクラス
}

class ユーザー
{
ユーザー管理クラス
}

class チャンネル
{
チャンネル管理クラス
}

' 関係（サーバー ← 翻訳機 ← ユーザー）
クライアント<-->レシーバー
翻訳機 ..> センダー
センダー<-->クライアント
レシーバー ..> 翻訳機
翻訳機 ..> ユーザー
翻訳機 ..> チャンネル
チャンネル..>ユーザー

@enduml
